<?xml version="1.0" standalone="no"?>
<!DOCTYPE svg PUBLIC "-//W3C//DTD SVG 20010904//EN"
 "http://www.w3.org/TR/2001/REC-SVG-20010904/DTD/svg10.dtd">
<svg version="1.0" xmlns="http://www.w3.org/2000/svg"
 width="824.000000pt" height="742.000000pt" viewBox="0 0 824.000000 742.000000"
 preserveAspectRatio="xMidYMid meet">

<g transform="translate(0.000000,742.000000) scale(0.100000,-0.100000)"
fill="#000000" stroke="none">
<path d="M4015 6255 c-165 -36 -328 -148 -445 -305 -327 -441 -285 -1154 88
-1524 153 -151 300 -216 490 -216 153 0 283 45 409 143 414 319 515 1020 219
1520 -53 90 -190 235 -269 285 -157 99 -329 133 -492 97z m293 -44 c11 -7 11
-9 -1 -14 -16 -6 -27 0 -27 15 0 10 11 10 28 -1z m-126 -68 c-6 -34 -19 -28
-14 7 3 18 0 30 -7 30 -6 0 -12 -15 -13 -32 l-1 -33 -4 33 c-2 17 -10 33 -16
33 -7 1 2 4 18 8 34 7 45 -6 37 -46z m-88 31 c9 -23 7 -54 -3 -54 -5 0 -11 16
-13 35 -4 36 5 47 16 19z m141 -23 c-4 -20 -12 -31 -23 -30 -11 0 -12 2 -4 6
6 2 12 15 12 27 0 23 10 40 18 32 2 -3 1 -18 -3 -35z m-207 17 c0 -7 4 -23 7
-35 5 -17 3 -23 -8 -23 -10 0 -13 6 -10 21 4 15 0 22 -16 26 -11 3 -18 9 -15
14 8 14 41 11 42 -3z m252 -10 c0 -13 -5 -30 -10 -38 -8 -11 -10 -5 -8 23 2
39 18 53 18 15z m-410 8 c0 -12 -33 -35 -42 -30 -5 3 1 12 14 19 29 16 28 16
28 11z m95 -48 c5 -18 3 -28 -4 -28 -6 0 -11 6 -11 13 0 6 -3 23 -6 37 -5 17
-4 22 4 15 6 -5 14 -22 17 -37z m377 12 c-9 -16 -24 -30 -32 -30 -10 0 -11 3
-4 8 6 4 14 17 18 30 4 12 14 22 21 22 11 0 11 -6 -3 -30z m-426 12 c-3 -5 1
-20 9 -35 10 -20 11 -27 2 -27 -18 0 -39 58 -23 64 17 7 18 7 12 -2z m474 3
c0 -2 -7 -23 -16 -45 -17 -41 -28 -47 -54 -29 -12 8 -10 9 7 4 19 -5 24 0 34
35 7 22 16 40 21 40 4 0 8 -2 8 -5z m39 -63 c-14 -28 -16 -29 -34 -15 -17 13
-17 15 -2 10 14 -5 19 0 24 24 4 20 9 27 16 20 7 -7 5 -20 -4 -39z m-557 8 c9
-16 13 -32 9 -34 -4 -3 -14 6 -21 19 -7 14 -17 25 -22 25 -5 0 -6 5 -3 10 10
16 19 12 37 -20z m608 5 c0 -12 -37 -64 -42 -59 -7 7 24 64 35 64 4 0 7 -2 7
-5z m-629 -45 c6 0 7 -4 4 -10 -3 -5 -10 -10 -15 -10 -12 0 -21 30 -13 43 5 8
9 6 11 -5 2 -10 8 -18 13 -18z m673 11 c3 -5 -5 -20 -19 -35 -13 -14 -26 -22
-29 -17 -3 4 3 16 14 26 11 10 17 22 14 26 -3 5 -1 9 5 9 5 0 12 -4 15 -9z
m-728 -26 c9 -14 14 -28 11 -31 -3 -3 -13 6 -23 21 -10 15 -23 24 -31 21 -8
-3 -11 -1 -8 4 11 18 34 11 51 -15z m486 -5 c190 -58 355 -263 425 -526 22
-85 26 -121 27 -254 1 -175 -14 -270 -65 -399 -151 -381 -492 -536 -775 -353
-167 108 -293 326 -330 572 -18 121 -18 210 1 333 68 449 388 729 717 627z
m271 4 c6 -7 -33 -54 -45 -54 -5 0 -1 14 9 30 17 30 25 35 36 24z m-790 -67
c-6 -10 -53 32 -53 46 0 4 13 -2 29 -15 15 -13 26 -27 24 -31z m-37 -15 c9 -5
12 -12 7 -15 -15 -9 -57 39 -47 54 5 9 9 6 15 -8 4 -12 15 -26 25 -31z m854 3
c-13 -14 -26 -23 -28 -20 -3 3 5 16 18 30 13 14 26 23 28 20 3 -3 -5 -16 -18
-30z m-874 -52 c-8 -8 -65 30 -60 39 3 5 19 -1 35 -13 17 -12 28 -23 25 -26z
m963 10 c8 -5 -44 -42 -59 -42 -10 0 -8 6 9 19 15 13 21 26 17 36 -6 15 -4 15
11 3 10 -7 20 -15 22 -16z m-69 2 c-7 -9 -15 -13 -17 -11 -7 7 7 26 19 26 6 0
6 -6 -2 -15z m-924 -43 c-2 -2 -15 4 -28 12 -14 9 -29 13 -33 9 -5 -5 -3 0 4
10 13 17 15 17 37 -4 13 -12 22 -24 20 -27z m-108 -11 c-7 -11 -16 -17 -20
-14 -10 5 10 33 23 33 5 0 4 -9 -3 -19z m57 -17 c14 -9 22 -21 18 -30 -4 -12
-8 -11 -20 6 -10 14 -22 20 -35 17 -16 -4 -17 -3 -7 9 14 17 14 17 44 -2z
m1075 8 c0 -4 -13 -16 -30 -25 -35 -21 -41 -7 -7 16 25 18 37 21 37 9z m28
-67 c-3 -3 -9 2 -12 12 -6 14 -5 15 5 6 7 -7 10 -15 7 -18z m-1118 -27 c0 -12
-13 -9 -34 7 -16 12 -22 12 -34 2 -13 -10 -14 -9 -4 10 12 21 13 21 42 5 16
-9 30 -20 30 -24z m1100 13 c0 -11 -31 -24 -39 -16 -3 3 1 10 9 15 19 12 30
12 30 1z m39 -41 c-27 -14 -59 -21 -59 -13 0 11 52 31 64 25 5 -3 2 -8 -5 -12z
m-1210 -5 c5 2 17 -2 27 -11 18 -14 17 -14 -16 -8 -42 8 -44 9 -34 25 6 10 9
10 12 1 2 -7 7 -10 11 -7z m1212 -42 c-18 -8 -35 -12 -38 -9 -8 7 51 35 62 28
5 -3 -6 -12 -24 -19z m-1208 3 c26 -20 21 -26 -13 -13 -16 6 -30 15 -30 19 0
12 23 9 43 -6z m-11 -53 c10 -3 16 -9 13 -13 -6 -10 -65 11 -65 23 0 5 8 6 18
2 9 -4 25 -10 34 -12z m1268 7 c0 -12 -48 -32 -64 -27 -8 3 31 26 62 36 1 1 2
-4 2 -9z m-1275 -51 c5 -6 4 -14 -4 -21 -9 -9 -12 -9 -7 -1 7 13 -28 28 -44
18 -11 -7 -14 8 -3 18 8 8 43 -1 58 -14z m1282 -20 c-7 -4 -22 -10 -34 -13
-19 -6 -23 -4 -23 16 0 16 3 19 8 10 10 -14 42 -6 42 12 0 6 5 4 10 -4 6 -10
5 -17 -3 -21z m-6 -45 c-18 -8 -36 -12 -39 -9 -10 10 21 25 48 24 23 -1 22 -2
-9 -15z m-1309 -166 c-11 -11 -39 0 -46 19 -11 28 6 35 30 12 13 -13 20 -27
16 -31z m1352 18 c-5 -14 -9 -15 -15 -4 -7 10 -9 9 -9 -4 0 -23 16 -23 29 -1
5 10 13 15 17 10 4 -4 -1 -16 -11 -27 l-19 -21 -20 20 c-19 20 -19 21 -1 41
20 23 40 13 29 -14z m-1393 -17 c11 -11 18 -23 15 -26 -7 -7 -46 26 -46 39 0
13 8 10 31 -13z m1436 -215 c-1 -1 -15 -4 -31 -8 -24 -6 -28 -5 -18 7 9 10 9
17 -1 26 -6 7 2 4 20 -6 17 -9 31 -18 30 -19z m-1407 -4 c0 -5 -7 -10 -16 -10
-8 0 -12 -5 -9 -10 4 -6 11 -8 16 -5 5 4 9 1 9 -5 0 -6 -8 -10 -17 -8 -10 1
-24 -1 -30 -5 -16 -10 -17 5 -1 21 9 9 8 12 -7 13 -19 0 -19 1 0 9 28 12 55
12 55 0z m1380 -60 c11 0 20 -5 20 -10 0 -6 -11 -8 -26 -4 -17 4 -30 2 -36 -7
-8 -11 -8 -10 -4 4 3 10 6 26 6 35 1 15 2 15 11 0 5 -10 19 -18 29 -18z
m-1394 -56 c-15 -14 -31 -22 -35 -19 -3 4 7 17 24 30 38 31 49 21 11 -11z
m1394 -4 c12 -8 12 -10 -5 -10 -11 0 -27 5 -35 10 -12 8 -12 10 5 10 11 0 27
-5 35 -10z m-1355 -39 c-17 -17 -85 -25 -85 -10 0 7 3 10 6 7 3 -3 17 -2 32 2
38 12 58 12 47 1z m1355 -13 c0 -6 -3 -8 -7 -5 -3 4 -14 0 -23 -8 -15 -14 -19
-14 -31 2 -9 11 -10 14 -1 9 7 -4 19 0 28 8 16 17 34 13 34 -6z m-1340 -47 c0
-5 -11 -16 -25 -25 -29 -19 -33 -11 -7 15 19 20 32 24 32 10z m1290 -12 c0 -6
7 -9 15 -5 8 3 15 1 15 -4 0 -15 -30 -12 -46 5 -14 13 -14 15 0 15 9 0 16 -5
16 -11z m6 -29 c8 0 14 -5 14 -11 0 -12 -40 -2 -55 14 -7 7 -4 8 8 3 10 -3 25
-6 33 -6z m-1277 -13 c-39 -29 -59 -36 -59 -23 0 14 17 22 49 25 8 0 12 0 10
-2z m11 -27 c0 -5 -7 -10 -15 -10 -8 0 -15 -4 -15 -10 0 -5 -8 -10 -17 -10
-13 0 -9 6 12 20 35 23 35 23 35 10z m1236 -15 c-3 -9 0 -15 9 -15 8 0 15 -4
15 -10 0 -12 0 -12 -38 1 -18 6 -30 15 -27 20 3 4 12 6 20 2 8 -3 15 0 15 6 0
6 3 11 6 11 3 0 4 -7 0 -15z m-1236 -40 c-33 -19 -50 -18 -26 0 11 8 27 15 35
15 10 -1 7 -6 -9 -15z m1228 -50 c-3 -3 -21 -2 -39 4 l-34 9 29 1 c29 1 29 1
10 24 -12 14 -8 12 11 -5 16 -15 26 -30 23 -33z m-1198 25 c0 -11 -50 -34 -57
-26 -3 2 8 11 24 20 34 19 33 18 33 6z m1151 -60 c13 -10 19 -19 13 -20 -7 0
-22 9 -35 20 -13 10 -19 19 -13 20 7 0 22 -9 35 -20z m-1158 3 c-7 -2 -19 -2
-25 0 -7 3 -2 5 12 5 14 0 19 -2 13 -5z m37 0 c-1 -14 -40 -56 -46 -50 -3 3 2
17 13 31 18 25 33 34 33 19z m1103 -37 c24 -18 21 -26 -8 -26 -14 0 -25 -4
-25 -10 0 -5 5 -10 12 -10 6 0 9 -3 6 -6 -7 -7 -48 18 -48 28 0 5 11 8 25 8
26 0 34 15 13 23 -7 3 -8 6 -3 6 6 0 18 -6 28 -13z m-1051 -41 c10 -17 9 -18
-4 -8 -11 10 -19 9 -36 -3 -12 -8 -22 -11 -22 -5 0 6 9 15 20 21 12 6 17 17
14 28 -5 14 -4 15 5 2 7 -8 17 -24 23 -35z m1018 -46 c0 -14 -5 -11 -31 17
l-24 27 28 -18 c15 -9 27 -21 27 -26z m-44 -14 c12 -8 25 -11 29 -7 5 4 5 1 1
-5 -10 -18 -20 -16 -47 7 -28 22 -13 27 17 5z m-931 -26 c-6 -18 -4 -20 15
-14 21 7 21 6 5 -19 -19 -29 -38 -35 -28 -9 4 11 3 14 -5 9 -15 -9 -15 -5 -2
28 11 31 24 35 15 5z m873 -50 c24 -20 25 -21 5 -17 -16 4 -20 2 -16 -8 4 -10
0 -12 -11 -8 -12 5 -15 2 -10 -12 6 -17 5 -17 -9 1 -21 26 -21 39 -1 31 13 -5
15 -2 11 14 -7 25 -2 25 31 -1z m-801 -44 c-5 -19 -14 -32 -18 -29 -5 2 -4 16
1 29 5 14 7 25 4 25 -3 0 -2 5 1 10 14 22 22 -2 12 -35z m753 -37 c0 -13 -13
-9 -43 10 -15 10 -25 21 -21 24 7 7 64 -24 64 -34z m-700 25 c-1 -15 -30 -46
-37 -40 -3 4 2 16 12 27 19 21 25 24 25 13z m24 -42 c-10 -17 -21 -28 -26 -25
-9 6 22 53 35 54 5 0 0 -13 -9 -29z m586 -6 c19 -36 7 -40 -14 -5 -9 17 -13
30 -8 30 5 0 15 -11 22 -25z m-520 -30 c0 -19 -4 -35 -10 -35 -5 0 -9 16 -8
35 1 19 5 35 10 35 4 0 8 -16 8 -35z m500 -16 c0 -5 -4 -9 -8 -9 -9 0 -32 44
-32 58 1 10 40 -38 40 -49z m-540 16 c-7 -9 -15 -13 -19 -10 -3 3 1 10 9 15
21 14 24 12 10 -5z m453 -15 c7 0 21 -8 32 -17 19 -15 19 -15 -8 -9 -19 5 -26
3 -22 -4 3 -5 1 -10 -4 -10 -6 0 -11 3 -11 8 0 4 -3 18 -5 32 -3 14 -3 19 1
13 3 -7 11 -13 17 -13z m-317 1 c-3 -5 1 -14 9 -21 20 -16 19 -40 -1 -40 -8 0
-12 5 -8 11 3 6 1 15 -6 19 -12 7 -8 40 5 40 4 0 4 -4 1 -9z m280 -59 c-7 -6
-45 39 -45 53 0 6 11 -3 25 -19 14 -15 23 -31 20 -34z m-180 4 c5 -21 4 -27
-5 -22 -6 4 -11 16 -11 27 0 10 -5 19 -11 19 -5 0 -7 5 -3 11 9 15 21 0 30
-35z m54 29 c0 -8 5 -15 11 -15 6 0 9 7 5 15 -3 8 -1 15 3 15 5 0 9 -16 9 -36
0 -32 -1 -33 -14 -17 -13 17 -13 17 -14 0 0 -31 -20 -8 -20 24 0 16 5 29 10
29 6 0 10 -7 10 -15z m77 -37 c-3 -7 -5 -2 -5 12 0 14 2 19 5 13 2 -7 2 -19 0
-25z m-174 7 c-3 -9 -8 -14 -10 -11 -3 3 -2 9 2 15 9 16 15 13 8 -4z"/>
<path d="M4053 6025 c-92 -20 -158 -60 -244 -145 -378 -375 -292 -1188 147
-1398 76 -36 83 -37 189 -37 107 0 112 1 189 38 61 29 96 54 150 110 165 170
243 400 233 687 -5 166 -29 266 -96 405 -124 255 -349 390 -568 340z m270 -53
c170 -84 296 -269 353 -517 14 -60 18 -117 18 -225 -2 -176 -28 -294 -100
-440 -38 -78 -62 -110 -128 -176 -91 -90 -153 -126 -258 -145 -209 -38 -429
118 -537 380 -183 442 -13 1012 339 1141 44 16 74 20 151 17 84 -2 103 -6 162
-35z"/>
<path d="M4070 5989 c-144 -28 -290 -161 -372 -339 -128 -276 -109 -654 43
-906 l34 -55 40 45 c30 34 53 49 93 60 29 8 60 13 70 10 13 -5 14 -4 3 4 -7 5
-10 15 -7 21 4 6 3 11 -3 11 -17 0 -8 40 15 61 20 19 24 19 50 6 16 -8 43 -17
59 -21 17 -4 37 -14 46 -22 14 -13 17 -13 22 -1 3 8 22 18 43 22 21 4 51 13
67 22 26 13 31 13 47 -2 18 -16 25 -65 8 -65 -5 0 -7 -4 -3 -9 3 -6 -3 -15
-12 -21 -16 -10 -15 -11 7 -6 37 8 131 -24 165 -56 17 -15 36 -28 43 -28 20 0
92 157 120 259 22 83 25 117 26 256 0 133 -3 175 -22 248 -69 274 -237 469
-437 506 -66 12 -82 12 -145 0z m95 -40 c8 -24 -10 -48 -25 -33 -10 10 -2 54
10 54 5 0 12 -9 15 -21z m15 -64 c0 -16 -45 -21 -54 -6 -8 12 4 21 31 21 14 0
23 -6 23 -15z m-94 -56 c17 -19 7 -34 -13 -18 -7 6 -12 28 -12 48 1 27 3 30 6
11 3 -14 11 -32 19 -41z m154 -9 c-18 -34 -29 -13 -11 23 12 25 17 29 19 16 2
-10 -2 -27 -8 -39z m-52 18 c3 -15 -4 -18 -37 -18 -29 0 -41 4 -41 14 0 30 73
33 78 4z m153 -20 c-4 -13 -11 -52 -15 -86 -9 -79 -24 -122 -35 -103 -9 14 13
125 35 179 15 36 28 45 15 10z m-366 -21 c15 -24 45 -124 45 -152 0 -8 -4 -15
-9 -15 -11 0 -31 55 -31 89 -1 14 -7 43 -14 64 -16 43 -13 47 9 14z m230 3
c22 -8 26 -15 21 -34 -4 -18 -1 -25 15 -29 16 -4 20 -11 16 -26 -3 -11 1 -26
9 -32 8 -7 13 -18 10 -26 -9 -21 5 -43 26 -43 32 0 14 -24 -23 -31 l-34 -6 35
-3 35 -3 -40 -7 -40 -7 50 -2 c65 -2 80 -11 71 -45 -8 -34 -40 -46 -118 -46
-56 0 -59 1 -47 18 13 16 13 16 -6 0 -16 -13 -39 -16 -115 -15 -52 1 -101 6
-107 10 -21 13 -16 65 7 72 11 3 20 11 20 16 0 5 10 10 23 10 l22 2 -22 4
c-25 5 -32 33 -8 33 16 0 34 29 28 47 -2 6 1 14 6 18 6 3 11 17 11 30 0 15 7
26 20 30 15 5 19 12 14 31 -5 19 -1 26 17 33 32 13 72 13 104 1z m222 -54 c-9
-13 -21 -46 -27 -73 -20 -88 -33 -123 -46 -123 -19 0 -27 19 -15 34 6 7 20 39
31 70 18 53 54 116 67 116 3 0 -2 -11 -10 -24z m-485 -109 c17 -42 25 -74 19
-80 -11 -11 -15 -4 -36 68 -9 33 -25 75 -36 93 -25 44 -24 51 2 17 12 -15 35
-59 51 -98z m-57 -55 c34 -84 57 -116 95 -132 36 -15 37 -21 9 -38 -19 -12
-24 -10 -58 26 -27 28 -43 58 -55 103 -10 35 -29 84 -42 109 l-25 45 25 -24
c14 -13 37 -53 51 -89z m564 -2 c-16 -47 -29 -86 -29 -88 0 -1 -18 -22 -41
-47 -36 -38 -43 -43 -60 -32 -24 15 -24 24 0 32 35 11 73 60 112 144 22 46 41
82 43 80 3 -2 -9 -42 -25 -89z m-630 -49 c29 -57 73 -103 118 -124 13 -6 22
-15 20 -21 -14 -43 -116 39 -146 117 -10 28 -22 60 -26 70 -16 40 7 12 34 -42z
m687 -3 c-16 -47 -33 -75 -70 -110 -27 -27 -55 -48 -62 -48 -17 0 -31 23 -16
28 35 11 103 77 123 119 20 44 38 73 44 73 1 0 -7 -28 -19 -62z m64 -76 c-17
-29 -40 -50 -89 -76 -77 -43 -85 -45 -89 -24 -2 11 15 25 52 42 30 14 59 26
65 26 5 0 25 18 43 39 18 22 34 38 36 36 2 -2 -6 -22 -18 -43z m-727 -50 c35
-16 67 -35 71 -41 36 -57 -129 18 -170 78 -33 49 -30 62 5 24 16 -18 58 -45
94 -61z m204 42 c-3 -3 -12 -4 -19 -1 -8 3 -5 6 6 6 11 1 17 -2 13 -5z m189
-43 c48 -17 62 -32 79 -91 7 -22 6 -23 -9 -11 -9 7 -16 23 -16 34 0 20 -26 57
-41 57 -4 0 -5 -9 -2 -20 3 -11 9 -17 14 -14 5 3 9 0 9 -5 0 -13 -3 -13 -24
-5 -9 3 -16 14 -16 23 0 9 -12 22 -27 28 -33 16 -45 7 -19 -13 19 -14 19 -14
-2 -14 -13 0 -25 7 -28 15 -4 8 -15 15 -25 15 -10 0 -19 4 -19 8 0 15 78 11
126 -7z m-142 -7 c4 -9 13 -14 21 -10 8 3 15 1 15 -3 0 -14 -32 -22 -45 -11
-7 6 -23 8 -36 6 -13 -3 -28 -5 -32 -5 -5 -1 -5 -6 -1 -12 3 -6 15 -8 27 -5
19 5 19 4 4 -11 -12 -12 -19 -13 -29 -6 -10 8 -19 6 -35 -7 -13 -10 -23 -21
-23 -24 0 -11 28 -6 34 7 3 6 5 3 3 -8 -1 -11 -11 -21 -21 -23 -19 -4 -55 -39
-56 -55 0 -5 9 -5 20 -2 26 8 25 2 -5 -31 -25 -27 -33 -54 -16 -54 6 0 13 5
16 10 8 13 25 13 25 -1 0 -6 -8 -13 -18 -16 -23 -6 -19 -47 8 -78 9 -11 20
-29 24 -39 5 -15 9 -17 19 -7 9 9 9 14 -3 21 -13 8 -13 10 2 10 24 0 31 -16
16 -40 -18 -28 -24 -26 -54 22 -40 62 -48 101 -44 192 3 61 95 176 140 176 11
0 20 5 20 10 0 16 17 12 24 -6z m-357 -24 c21 -11 48 -20 60 -20 28 0 103 -29
103 -40 0 -16 -18 -20 -42 -11 -13 5 -41 14 -63 20 -22 6 -56 24 -75 40 -41
35 -35 39 17 11z m847 -11 c-21 -20 -50 -35 -85 -44 -30 -7 -60 -14 -68 -16
-7 -2 -15 1 -18 7 -5 14 56 44 89 44 12 0 39 8 58 19 52 27 58 25 24 -10z
m-359 -18 c110 -51 146 -173 81 -272 -70 -105 -233 -104 -303 2 -23 35 -28 53
-28 105 0 55 4 68 31 101 35 44 105 83 149 83 16 0 48 -9 70 -19z m155 -65 c0
-5 -6 -3 -13 3 -11 9 -13 5 -12 -20 2 -26 0 -28 -13 -16 -10 11 -11 20 -4 33
10 19 -3 64 -20 64 -4 0 -8 6 -8 13 1 13 70 -62 70 -77z m-593 14 c56 0 93 -9
93 -21 0 -12 -96 -11 -141 1 -20 6 -44 19 -54 30 -18 20 -18 20 18 5 20 -8 58
-15 84 -15z m825 -2 c-19 -19 -36 -23 -102 -26 -51 -3 -80 0 -80 6 0 17 40 26
105 24 33 -1 67 2 75 8 25 16 26 11 2 -12z m-233 -96 c-10 -7 -16 -19 -13 -25
5 -8 2 -7 -7 1 -16 15 1 49 23 44 10 -3 10 -1 1 9 -6 6 -9 19 -5 27 4 12 8 9
14 -13 6 -23 3 -31 -13 -43z m-509 44 c0 -18 -108 -40 -154 -32 -49 9 -58 28
-9 21 24 -4 51 -1 73 9 44 19 90 21 90 2z m656 -2 c22 -9 52 -14 71 -11 45 8
32 -10 -13 -19 -45 -8 -144 14 -144 33 0 18 39 17 86 -3z m-666 -43 c0 -9 -64
-34 -112 -45 -44 -10 -32 10 20 32 49 22 92 28 92 13z m675 -11 c22 -11 51
-20 65 -21 l25 0 -24 -10 c-13 -5 -33 -7 -45 -3 -54 15 -106 38 -106 45 0 16
45 10 85 -11z m-136 -32 c-2 -40 -18 -88 -30 -88 -13 0 -11 11 7 31 20 22 1
35 -20 13 -26 -26 -18 1 9 30 14 15 25 31 25 37 0 5 2 9 5 9 3 0 5 -15 4 -32z
m-539 0 c0 -16 -102 -58 -138 -57 l-27 1 29 10 c16 6 45 21 64 34 38 26 72 31
72 12z m662 -13 c20 -14 49 -25 63 -25 17 0 24 -4 19 -11 -14 -23 -153 21
-154 49 0 20 32 14 72 -13z m-652 -32 c0 -24 -64 -59 -122 -67 -58 -9 -62 -2
-10 15 20 6 52 25 70 40 37 33 62 37 62 12z m633 -12 c18 -16 45 -33 60 -36
47 -12 40 -25 -9 -18 -56 7 -113 41 -114 66 0 26 25 21 63 -12z m-527 -20
c-12 -19 -24 -12 -22 14 1 20 3 22 15 11 7 -8 10 -19 7 -25z m-92 -9 c8 -13
-64 -77 -102 -92 -18 -7 -39 -22 -47 -34 -12 -16 -15 -17 -15 -4 0 9 15 28 33
43 17 14 49 42 69 60 37 35 53 42 62 27z m612 -34 c24 -24 55 -53 69 -65 14
-12 25 -28 25 -35 0 -7 -8 -3 -18 9 -9 12 -33 28 -52 37 -43 18 -103 73 -95
86 11 18 26 11 71 -32z m-130 21 c9 -16 -81 -99 -106 -99 -11 0 -20 -4 -20
-10 0 -17 -14 -11 -28 11 -15 24 -9 37 10 22 11 -9 32 -10 73 -4 6 1 2 6 -8
12 -9 5 -22 7 -28 3 -7 -4 -10 -1 -7 7 3 8 18 14 34 14 33 1 64 13 64 26 0 5
-7 9 -15 9 -8 0 -15 -5 -15 -11 0 -5 -5 -7 -10 -4 -15 9 8 35 31 35 10 0 21
-5 25 -11z m-463 -25 c9 -9 -62 -97 -95 -118 -16 -10 -34 -30 -39 -44 -5 -14
-12 -23 -15 -20 -10 11 16 57 45 78 17 12 31 27 31 35 0 15 47 75 59 75 4 0
10 -3 14 -6z m552 -33 c11 -19 37 -51 58 -72 20 -21 37 -46 37 -56 -1 -14 -4
-12 -15 8 -7 14 -24 30 -38 36 -26 12 -99 107 -89 117 11 11 27 0 47 -33z
m-531 1 c7 -11 -59 -135 -80 -153 -12 -10 -11 -4 5 26 11 22 21 46 21 53 0 20
31 82 41 82 4 0 10 -4 13 -8z m145 -1 c9 -6 11 -18 7 -35 -6 -26 -7 -26 -36
-11 -17 9 -30 22 -30 31 0 8 4 13 9 9 5 -3 12 -1 16 5 8 12 16 12 34 1z m366
-64 c8 -28 22 -62 32 -76 l16 -26 -22 19 c-25 23 -82 136 -74 149 10 16 33
-16 48 -66z m-499 -29 c-26 -58 -55 -93 -36 -43 6 15 10 36 10 48 0 29 29 72
41 60 6 -6 0 -32 -15 -65z m215 60 c1 -7 1 -16 1 -19 -1 -3 10 -4 23 -1 14 2
25 0 25 -6 0 -16 -96 -14 -110 3 -15 18 -7 19 20 3 26 -16 40 0 16 18 -19 14
-19 14 2 14 12 0 23 -6 23 -12z m244 -47 c4 -20 11 -47 16 -60 5 -13 7 -26 5
-29 -3 -3 -17 20 -30 51 -14 30 -30 58 -35 62 -12 7 -15 -8 -4 -19 4 -4 13
-25 19 -47 10 -34 10 -38 -2 -28 -8 6 -14 20 -14 30 0 9 -7 25 -16 34 -15 15
-15 18 6 40 29 31 47 19 55 -34z m-425 -8 c-11 -14 -20 -34 -20 -44 0 -10 -4
-20 -9 -24 -5 -3 -5 11 1 32 14 52 27 75 39 68 5 -4 1 -17 -11 -32z"/>
<path d="M4138 5743 c12 -2 32 -2 45 0 12 2 2 4 -23 4 -25 0 -35 -2 -22 -4z"/>
<path d="M4128 5583 c12 -2 30 -2 40 0 9 3 -1 5 -23 4 -22 0 -30 -2 -17 -4z"/>
<path d="M4018 5553 c12 -2 30 -2 40 0 9 3 -1 5 -23 4 -22 0 -30 -2 -17 -4z"/>
<path d="M4084 5495 c36 -19 42 -19 26 0 -7 8 -22 15 -34 15 -18 0 -17 -2 8
-15z"/>
<path d="M4127 5499 c8 -8 19 -8 40 -1 28 10 28 10 -11 11 -29 1 -37 -2 -29
-10z"/>
<path d="M4118 5323 c6 -2 18 -2 25 0 6 3 1 5 -13 5 -14 0 -19 -2 -12 -5z"/>
<path d="M4178 5323 c7 -3 16 -2 19 1 4 3 -2 6 -13 5 -11 0 -14 -3 -6 -6z"/>
<path d="M4056 5299 c-27 -21 -56 -68 -56 -91 0 -7 9 6 21 29 11 23 35 51 52
62 18 12 27 21 21 21 -6 0 -23 -9 -38 -21z"/>
<path d="M4237 5299 c17 -11 41 -39 52 -62 12 -23 21 -36 21 -29 0 36 -64 112
-94 112 -6 0 3 -9 21 -21z"/>
<path d="M4071 5275 c-117 -99 4 -286 142 -220 48 22 82 90 72 142 -9 47 -63
103 -101 103 -26 0 -26 -1 -11 -18 20 -22 22 -43 5 -60 -10 -10 -7 -16 10 -28
27 -19 29 -51 2 -59 -15 -5 -20 -15 -19 -38 1 -29 2 -30 8 -8 8 31 24 36 42
15 12 -14 10 -19 -10 -35 -50 -41 -141 -10 -128 43 4 16 18 30 37 38 33 14 38
25 15 34 -18 6 -20 27 -3 44 6 6 13 25 15 42 2 26 0 30 -21 30 -14 0 -38 -11
-55 -25z"/>
<path d="M4000 5142 c0 -39 74 -123 108 -121 11 0 8 4 -8 10 -37 15 -61 40
-81 84 -10 22 -19 34 -19 27z"/>
<path d="M4124 5116 c-8 -21 3 -49 16 -41 5 3 10 15 10 25 0 25 -18 36 -26 16z"/>
<path d="M4271 5077 c-14 -16 -38 -35 -55 -43 -20 -8 -24 -13 -13 -14 18 0
106 75 97 83 -3 2 -16 -9 -29 -26z"/>
<path d="M4143 5013 c9 -2 23 -2 30 0 6 3 -1 5 -18 5 -16 0 -22 -2 -12 -5z"/>
<path d="M4035 4980 c-7 -12 2 -30 16 -30 5 0 9 9 9 20 0 21 -15 27 -25 10z"/>
<path d="M3990 4850 c8 -5 20 -10 25 -10 6 0 3 5 -5 10 -8 5 -19 10 -25 10 -5
0 -3 -5 5 -10z"/>
<path d="M4039 4830 c4 -3 8 -15 8 -28 2 -19 -1 -20 -17 -12 -10 5 -22 10 -27
10 -4 -1 5 -8 21 -17 22 -11 56 -15 124 -15 51 0 96 3 100 6 3 3 -38 6 -91 6
-90 0 -96 1 -94 20 1 18 8 20 92 20 49 0 95 4 102 8 6 4 -42 7 -107 7 -65 0
-115 -2 -111 -5z"/>
<path d="M4230 4800 c0 -5 7 -7 15 -4 8 4 15 8 15 10 0 2 -7 4 -15 4 -8 0 -15
-4 -15 -10z"/>
<path d="M4232 4725 c0 -16 2 -22 5 -12 2 9 2 23 0 30 -3 6 -5 -1 -5 -18z"/>
<path d="M4273 4709 c-29 -15 -50 -29 -47 -32 3 -3 26 7 52 21 54 29 57 31 51
35 -2 1 -27 -10 -56 -24z"/>
<path d="M3963 4713 c-19 -7 -16 -40 3 -47 13 -5 14 -3 6 7 -15 18 1 39 24 31
16 -5 16 -4 4 5 -16 12 -19 12 -37 4z"/>
<path d="M4336 4704 c-3 -8 -2 -12 4 -9 6 3 10 0 10 -7 0 -8 -20 -24 -45 -36
-49 -24 -63 -12 -15 13 17 9 30 18 30 21 0 2 -12 -2 -27 -10 -18 -8 -65 -14
-125 -15 -85 -2 -97 0 -92 14 4 9 1 15 -9 15 -9 0 -24 2 -34 5 -11 3 -9 1 5
-6 12 -7 22 -16 22 -21 0 -11 -11 -10 -40 7 -14 8 -29 14 -35 14 -5 0 6 -8 25
-19 28 -15 56 -19 139 -20 87 0 102 -2 97 -15 -8 -21 7 -19 64 10 34 17 50 32
50 45 0 24 -16 34 -24 14z"/>
<path d="M4024 4636 c11 -9 26 -16 35 -16 15 0 13 7 -4 10 -5 1 -19 6 -30 12
-20 9 -20 9 -1 -6z"/>
<path d="M4038 4543 c61 -2 163 -2 225 0 61 1 11 3 -113 3 -124 0 -174 -2
-112 -3z"/>
<path d="M3988 4513 c7 -3 16 -2 19 1 4 3 -2 6 -13 5 -11 0 -14 -3 -6 -6z"/>
<path d="M4078 4513 c23 -2 61 -2 85 0 23 2 4 4 -43 4 -47 0 -66 -2 -42 -4z"/>
<path d="M2202 4317 l-632 -632 428 -428 427 -427 350 350 350 350 -140 140
c-77 77 -144 140 -149 140 -5 0 -97 -90 -204 -200 -106 -110 -199 -200 -206
-200 -14 0 -276 261 -276 275 0 13 672 685 685 685 6 0 166 -156 357 -347
l348 -348 -350 -355 -349 -355 0 -280 0 -280 630 635 c346 349 629 637 629
640 0 3 -285 290 -633 638 l-632 632 -633 -633z"/>
<path d="M4815 4280 l-600 -600 600 -600 600 -600 600 600 600 600 -600 600
-600 600 -600 -600z m955 -245 l355 -355 -358 -358 -357 -357 -355 355 -355
355 352 357 c194 197 355 358 358 358 3 0 165 -160 360 -355z"/>
<path d="M6784 3429 c-4 -7 7 -22 25 -36 17 -13 31 -33 31 -43 0 -31 -28 -31
-66 2 -25 22 -38 28 -46 20 -8 -8 -2 -18 21 -37 17 -15 31 -33 31 -41 0 -8 6
-14 13 -14 14 0 77 66 77 81 0 11 -63 79 -73 79 -3 0 -9 -5 -13 -11z"/>
<path d="M1400 3379 c0 -13 -41 -48 -57 -49 -6 0 -15 -5 -18 -10 -8 -13 69
-90 90 -90 8 0 31 14 52 32 21 18 40 33 42 35 2 1 -2 10 -9 18 -12 14 -17 12
-50 -20 -39 -38 -64 -44 -74 -18 -5 11 5 29 30 54 35 36 38 59 8 59 -8 0 -14
-5 -14 -11z"/>
<path d="M6644 3295 c-26 -26 -28 -45 -5 -53 7 -2 11 3 9 13 -2 10 5 22 14 28
14 10 24 5 53 -23 27 -26 38 -31 47 -22 6 6 10 13 7 15 -2 1 -21 17 -42 35
-21 18 -42 32 -48 32 -5 0 -21 -11 -35 -25z"/>
<path d="M1530 3266 c0 -7 -18 -30 -39 -49 -32 -29 -37 -38 -26 -47 11 -9 18
-7 34 9 23 23 66 28 77 9 4 -6 -6 -23 -26 -41 -28 -25 -30 -31 -18 -43 12 -12
20 -7 60 35 l46 49 -22 21 c-16 15 -25 18 -33 10 -7 -7 -19 -9 -28 -5 -15 5
-15 7 0 22 12 12 13 19 4 30 -15 18 -29 18 -29 0z"/>
<path d="M6549 3191 c-16 -16 -29 -35 -29 -41 0 -17 56 -70 73 -70 30 0 37 24
15 58 -27 44 -51 45 -28 1 12 -21 1 -26 -18 -7 -18 18 -14 46 8 58 18 10 26 6
55 -23 27 -27 37 -32 45 -22 8 9 1 21 -25 44 -44 38 -59 39 -96 2z"/>
<path d="M1637 3153 c-13 -13 -7 -23 14 -20 12 1 26 -6 32 -15 10 -15 5 -24
-28 -58 -30 -31 -36 -43 -27 -52 9 -9 21 -3 52 27 46 45 50 66 15 100 -24 25
-45 31 -58 18z"/>
<path d="M1780 3106 c0 -2 20 -24 45 -48 33 -33 45 -41 45 -28 0 18 -62 80
-80 80 -6 0 -10 -2 -10 -4z"/>
<path d="M6447 3082 c-49 -51 -29 -80 32 -45 24 15 33 15 43 5 16 -16 -2 -48
-26 -44 -17 3 -22 -13 -7 -22 15 -10 61 34 61 59 0 38 -29 47 -68 23 -42 -26
-56 -14 -19 16 15 12 27 25 27 29 0 14 -17 6 -43 -21z"/>
<path d="M1740 3041 c0 -5 10 -11 21 -13 12 -2 27 -11 33 -20 8 -13 5 -23 -14
-43 -13 -14 -31 -25 -41 -25 -21 0 -43 25 -34 40 3 5 -1 10 -10 10 -25 0 -14
-40 17 -63 23 -17 30 -18 57 -7 17 7 36 18 42 26 17 21 14 62 -6 84 -18 20
-65 28 -65 11z"/>
<path d="M6344 2985 c-26 -26 -28 -45 -5 -53 7 -2 11 3 9 13 -2 10 5 22 14 28
14 10 24 5 53 -23 27 -26 38 -31 47 -22 6 6 10 13 7 15 -2 1 -21 17 -42 35
-21 18 -42 32 -48 32 -5 0 -21 -11 -35 -25z"/>
<path d="M1860 2938 c-1 -7 -18 -26 -39 -43 -36 -28 -38 -31 -23 -48 14 -16
16 -16 29 2 16 24 81 47 94 34 6 -6 -5 -24 -31 -47 -34 -31 -39 -40 -29 -52
10 -13 17 -10 46 18 19 18 39 41 45 51 13 25 -7 47 -44 47 -26 0 -28 2 -18 15
6 8 9 19 5 25 -9 14 -35 13 -35 -2z"/>
<path d="M6271 2928 c-5 -13 -16 -30 -25 -37 -18 -15 -22 -51 -6 -51 6 0 10 8
10 19 0 22 25 45 39 36 7 -4 5 -14 -5 -30 -21 -32 -15 -69 12 -73 22 -3 52 23
40 35 -4 4 -11 1 -16 -7 -13 -22 -34 2 -25 29 8 25 22 27 47 4 13 -11 22 -13
29 -6 7 7 -1 20 -26 42 -20 17 -40 31 -46 31 -6 0 -8 4 -4 9 3 5 1 12 -5 16
-5 3 -14 -4 -19 -17z"/>
<path d="M1987 2813 c-4 -3 -7 -15 -7 -26 0 -13 -5 -17 -15 -13 -15 5 -45 -18
-45 -35 0 -16 57 -69 74 -69 20 0 86 58 86 75 0 29 -21 25 -51 -10 -35 -40
-74 -45 -74 -10 0 16 7 20 32 20 20 0 29 3 23 9 -18 18 -11 38 10 31 22 -7 26
5 8 23 -13 13 -31 16 -41 5z"/>
<path d="M6156 2799 c-27 -21 -36 -59 -13 -59 8 0 13 10 13 22 -1 35 32 34 68
-1 24 -23 35 -28 43 -20 9 9 1 20 -29 45 -22 19 -43 34 -48 34 -4 0 -19 -9
-34 -21z"/>
<path d="M6074 2719 c-15 -16 -16 -22 -5 -28 21 -14 3 -33 -19 -21 -37 20 -30
-9 12 -49 32 -29 46 -37 56 -29 10 9 8 14 -8 25 -21 15 -27 57 -9 69 6 3 23
-6 38 -20 20 -19 30 -23 38 -15 9 9 4 18 -17 35 -15 13 -33 24 -39 24 -6 0
-11 7 -11 15 0 21 -14 19 -36 -6z"/>
<path d="M2087 2713 c-13 -13 -7 -23 14 -20 12 1 26 -6 32 -15 10 -15 5 -24
-28 -58 -30 -31 -36 -43 -27 -52 9 -9 21 -3 52 27 46 45 50 66 15 100 -24 25
-45 31 -58 18z"/>
<path d="M2300 2614 c0 -20 54 -74 74 -74 9 0 16 5 16 10 0 6 -6 10 -13 10
-18 0 -49 35 -40 44 4 4 1 11 -7 16 -22 14 -30 12 -30 -6z"/>
<path d="M5974 2609 c-4 -7 7 -22 25 -36 17 -13 31 -33 31 -43 0 -31 -28 -31
-66 2 -25 22 -38 28 -46 20 -8 -8 -2 -18 21 -37 17 -15 31 -33 31 -41 0 -8 6
-14 13 -14 14 0 77 66 77 81 0 11 -63 79 -73 79 -3 0 -9 -5 -13 -11z"/>
<path d="M2206 2602 c-12 -11 -5 -21 15 -24 22 -3 48 -32 38 -43 -3 -3 -24 5
-46 17 -35 19 -43 20 -57 8 -26 -21 -17 -64 14 -68 24 -2 24 -2 6 12 -35 28
10 50 48 23 16 -12 15 -14 -8 -36 -19 -18 -23 -28 -15 -37 8 -9 19 -2 50 30
21 24 39 48 39 53 0 30 -68 82 -84 65z"/>
<path d="M2317 2493 c-4 -3 -7 -15 -7 -26 0 -13 -5 -17 -15 -13 -15 5 -45 -18
-45 -35 0 -16 57 -69 74 -69 20 0 86 58 86 75 0 29 -21 25 -51 -10 -35 -40
-74 -45 -74 -10 0 16 7 20 32 20 20 0 29 3 23 9 -18 18 -11 38 10 31 22 -7 26
5 8 23 -13 13 -31 16 -41 5z"/>
<path d="M5846 2484 c-9 -8 -13 -21 -9 -27 5 -8 8 -8 11 1 2 7 10 12 18 12 17
0 54 -35 54 -51 0 -12 -40 -8 -72 6 -11 4 -18 3 -18 -4 0 -7 16 -19 36 -27 33
-14 38 -14 55 2 26 24 24 51 -7 79 -31 29 -47 31 -68 9z"/>
<path d="M5744 2387 c-17 -15 -25 -30 -22 -42 4 -18 6 -17 16 8 14 34 54 37
76 6 19 -28 10 -49 -21 -49 -20 0 -24 4 -20 20 6 24 -18 28 -27 5 -16 -43 32
-68 73 -38 35 27 38 57 7 88 -31 31 -47 31 -82 2z"/>
<path d="M2420 2364 c0 -9 10 -29 21 -46 20 -28 20 -31 5 -46 -21 -21 -52 -4
-49 27 2 13 -3 21 -12 21 -22 0 -18 -37 5 -60 22 -22 60 -26 78 -8 17 17 15
36 -8 68 -28 39 -5 54 25 17 11 -15 27 -27 35 -27 8 0 0 14 -20 35 -36 37 -80
47 -80 19z"/>
<path d="M5617 2354 c-3 -3 -3 -13 0 -21 5 -12 1 -14 -17 -8 -19 6 -22 4 -16
-10 3 -10 1 -24 -5 -31 -6 -7 -9 -18 -7 -23 1 -5 20 10 40 34 30 34 35 45 24
54 -7 6 -15 8 -19 5z"/>
<path d="M5664 2299 c-4 -7 7 -22 25 -36 17 -13 31 -33 31 -43 0 -31 -28 -31
-66 2 -25 22 -38 28 -46 20 -8 -8 -2 -18 21 -37 17 -15 31 -33 31 -41 0 -8 6
-14 13 -14 14 0 77 66 77 81 0 11 -63 79 -73 79 -3 0 -9 -5 -13 -11z"/>
<path d="M2527 2283 c-13 -13 -7 -23 14 -20 12 1 26 -6 32 -15 10 -15 5 -24
-28 -58 -30 -31 -36 -43 -27 -52 9 -9 21 -3 52 27 46 45 50 66 15 100 -24 25
-45 31 -58 18z"/>
<path d="M5445 2190 c-10 -17 12 -37 25 -24 8 8 6 15 -4 23 -10 9 -16 9 -21 1z"/>
<path d="M5545 2189 c-9 -13 65 -79 84 -76 19 3 27 27 9 27 -7 0 -27 14 -45
30 -35 33 -39 35 -48 19z"/>
<path d="M2637 2183 c-12 -11 -8 -24 6 -21 7 2 14 -1 15 -7 1 -5 -8 -11 -22
-13 -33 -4 -59 -35 -51 -61 3 -12 19 -28 35 -36 27 -14 30 -13 59 11 17 14 31
32 31 40 0 8 6 14 13 12 7 -2 14 2 15 7 2 6 -4 12 -14 13 -9 2 -29 -11 -46
-32 -31 -38 -55 -46 -64 -21 -9 22 14 45 46 45 36 0 45 25 20 50 -21 21 -32
24 -43 13z"/>
<path d="M5465 2105 c-40 -39 -29 -83 25 -105 47 -19 58 -2 32 51 -16 31 -23
38 -27 27 -4 -9 -1 -26 5 -38 10 -19 10 -20 -9 -8 -31 19 -34 39 -11 62 l20
20 38 -37 c28 -27 41 -34 49 -26 8 8 1 20 -27 45 -45 40 -63 42 -95 9z"/>
<path d="M2865 2070 c-8 -13 57 -80 79 -80 9 0 16 5 16 10 0 6 -8 10 -19 10
-21 0 -37 17 -42 44 -5 22 -24 32 -34 16z"/>
<path d="M2756 2045 c-3 -8 -12 -15 -19 -15 -8 0 -20 -7 -27 -15 -7 -8 -16
-12 -21 -9 -5 3 -9 -2 -9 -11 0 -26 29 -29 54 -6 12 11 28 21 34 21 7 0 12 7
12 15 0 13 4 14 20 5 29 -16 25 -33 -19 -73 -34 -31 -37 -37 -25 -48 12 -10
22 -5 54 26 22 22 40 47 40 56 0 19 -54 69 -75 69 -7 0 -15 -7 -19 -15z"/>
<path d="M5597 2043 c-4 -3 -4 -16 -1 -28 5 -20 2 -22 -20 -18 -29 6 -36 -11
-10 -21 21 -8 54 20 54 45 0 19 -13 32 -23 22z"/>
<path d="M5279 2023 c-1 -5 -1 -12 0 -16 1 -5 -10 -22 -24 -39 -39 -46 -22
-45 23 0 29 29 37 43 29 51 -13 13 -26 14 -28 4z"/>
<path d="M5296 1935 c-33 -31 -33 -55 2 -88 31 -30 60 -35 68 -12 9 22 -4 65
-22 72 -24 9 -29 -5 -9 -27 24 -26 11 -39 -15 -15 -25 23 -22 59 5 63 11 1 34
-10 52 -27 25 -22 35 -26 42 -17 8 10 0 21 -29 44 -47 38 -59 39 -94 7z"/>
<path d="M2883 1928 c-9 -15 -40 -36 -65 -44 -21 -7 -12 -34 12 -34 9 0 25 9
35 20 10 11 24 20 31 20 7 0 14 6 17 13 5 15 37 -8 37 -28 0 -13 -84 -95 -98
-95 -4 0 -14 9 -22 20 -8 11 -20 20 -27 20 -7 0 -13 7 -13 16 0 8 -4 12 -10 9
-15 -10 -12 -35 5 -35 8 0 15 -7 15 -15 0 -8 6 -15 14 -15 8 0 16 -7 20 -15
10 -28 41 -15 95 39 40 41 52 59 47 74 -13 40 -77 75 -93 50z"/>
<path d="M5213 1849 c-8 -8 -2 -19 23 -41 19 -17 34 -36 34 -44 0 -29 -30 -26
-66 6 -52 45 -68 23 -17 -24 21 -19 42 -36 46 -36 4 0 19 11 33 25 14 14 29
25 34 25 6 0 10 9 10 20 0 11 -6 20 -14 20 -8 0 -26 14 -39 30 -29 34 -29 34
-44 19z"/>
<path d="M3010 1819 c0 -13 -41 -48 -57 -49 -6 0 -15 -5 -18 -10 -8 -13 69
-90 90 -90 8 0 31 14 52 32 21 18 40 33 42 35 2 1 -2 10 -9 18 -12 14 -17 12
-50 -20 -39 -38 -64 -44 -74 -18 -5 11 5 29 30 54 35 36 38 59 8 59 -8 0 -14
-5 -14 -11z"/>
<path d="M5076 1719 c-36 -29 -35 -71 3 -98 31 -22 56 -27 66 -12 8 13 -27 80
-42 81 -18 0 -16 -11 4 -40 l17 -25 -24 16 c-33 21 -37 54 -10 69 18 10 26 6
57 -25 27 -27 38 -33 49 -24 11 9 6 18 -27 45 -48 40 -57 41 -93 13z"/>
<path d="M3140 1709 c0 -6 -19 -28 -42 -49 -33 -30 -40 -41 -31 -50 9 -10 18
-8 39 9 55 43 102 9 50 -36 -23 -19 -26 -26 -16 -38 10 -12 17 -8 44 25 17 21
37 39 44 39 6 1 12 7 12 15 0 19 -42 49 -50 36 -3 -5 -15 -8 -27 -7 -20 1 -21
3 -8 17 19 21 19 36 0 44 -8 3 -15 0 -15 -5z"/>
<path d="M4976 1604 c-9 -8 -13 -21 -9 -27 5 -8 8 -8 11 1 2 7 10 12 18 12 17
0 54 -35 54 -51 0 -12 -40 -8 -72 6 -11 4 -18 3 -18 -4 0 -7 16 -19 36 -27 33
-14 38 -14 55 2 26 24 24 51 -7 79 -31 29 -47 31 -68 9z"/>
<path d="M3247 1583 c-13 -13 -7 -23 14 -20 12 1 26 -6 32 -15 10 -15 5 -24
-28 -58 -30 -31 -36 -43 -27 -52 9 -9 21 -3 52 27 46 45 50 66 15 100 -24 25
-45 31 -58 18z"/>
<path d="M4876 1509 c-27 -21 -36 -59 -13 -59 8 0 13 10 13 22 -1 35 32 34 68
-1 24 -23 35 -28 43 -20 9 9 1 20 -29 45 -22 19 -43 34 -48 34 -4 0 -19 -9
-34 -21z"/>
<path d="M4791 1494 c-1 -27 -11 -36 -27 -23 -16 13 -31 -8 -15 -24 16 -16 55
24 48 49 -4 17 -5 17 -6 -2z"/>
<path d="M3366 1483 c-12 -12 -6 -22 15 -25 22 -3 48 -32 38 -43 -3 -3 -24 5
-46 17 -35 19 -43 20 -57 8 -26 -21 -17 -64 14 -68 24 -2 24 -2 6 12 -34 27 3
48 46 25 20 -11 20 -11 -6 -38 -21 -22 -24 -30 -14 -38 10 -8 22 1 48 33 19
23 43 43 53 43 9 1 17 6 17 11 0 6 -8 13 -17 17 -10 3 -27 14 -38 23 -24 21
-51 31 -59 23z"/>
<path d="M4787 1422 c-49 -51 -29 -80 32 -45 24 15 33 15 43 5 16 -16 -2 -48
-26 -44 -17 3 -22 -13 -7 -22 15 -10 61 34 61 59 0 38 -29 47 -68 23 -42 -26
-56 -14 -19 16 15 12 27 25 27 29 0 14 -17 6 -43 -21z"/>
<path d="M3460 1365 c0 -9 8 -14 21 -12 12 1 26 -6 33 -16 9 -15 5 -24 -31
-57 -33 -32 -39 -41 -28 -50 11 -9 22 -2 52 30 21 24 39 46 41 51 5 13 -54 69
-72 69 -9 0 -16 -7 -16 -15z"/>
<path d="M4701 1348 c-5 -13 -16 -30 -25 -37 -18 -15 -22 -51 -6 -51 6 0 10 8
10 19 0 22 25 45 39 36 7 -4 5 -14 -5 -30 -21 -32 -15 -69 12 -73 22 -3 52 23
40 35 -4 4 -11 1 -16 -7 -13 -22 -34 2 -25 29 8 25 22 27 47 4 13 -11 22 -13
29 -6 7 7 -1 20 -26 42 -20 17 -40 31 -46 31 -6 0 -8 4 -4 9 3 5 1 12 -5 16
-5 3 -14 -4 -19 -17z"/>
<path d="M4555 1281 c-3 -5 20 -33 50 -62 57 -53 67 -75 39 -86 -9 -3 -28 7
-50 28 -25 24 -37 30 -45 22 -8 -8 -2 -19 22 -42 41 -38 74 -37 103 2 l20 27
-59 60 c-61 61 -70 67 -80 51z"/>
<path d="M3560 1254 c0 -9 10 -29 21 -46 20 -28 20 -31 5 -46 -21 -21 -52 -4
-49 27 2 13 -3 21 -12 21 -22 0 -18 -37 5 -60 22 -22 60 -26 78 -8 17 17 15
36 -8 68 -28 39 -5 54 25 17 11 -15 27 -27 35 -27 8 0 0 14 -20 35 -36 37 -80
47 -80 19z"/>
<path d="M4515 1250 c-4 -6 -4 -14 -1 -17 3 -4 -4 -17 -16 -30 -12 -12 -18
-26 -15 -30 4 -3 8 -4 10 -2 1 2 15 18 30 35 24 26 26 33 13 43 -10 9 -16 9
-21 1z"/>
<path d="M3667 1149 c-9 -5 -24 -24 -33 -41 -14 -26 -14 -32 -2 -44 12 -12 20
-11 56 8 23 13 42 26 42 31 0 11 -38 9 -45 -3 -3 -5 -12 -10 -18 -10 -7 0 1
12 16 25 23 20 32 23 48 15 29 -16 23 -44 -17 -80 -32 -28 -35 -33 -22 -46 13
-13 19 -10 51 26 45 49 46 70 6 104 -33 28 -53 32 -82 15z"/>
<path d="M4487 1113 c-3 -5 10 -19 29 -33 38 -28 43 -65 9 -65 -15 0 -20 7
-20 26 1 23 -2 25 -17 16 -9 -6 -21 -8 -25 -4 -4 5 -1 12 7 17 18 11 6 24 -15
16 -20 -7 -16 -51 5 -51 8 0 17 -9 20 -20 8 -26 35 -31 65 -11 33 22 32 56 -3
89 -28 27 -47 34 -55 20z"/>
<path d="M3797 1053 c-13 -13 -7 -23 14 -20 12 1 26 -6 32 -15 10 -15 5 -24
-28 -58 -30 -31 -36 -43 -27 -52 9 -9 21 -3 52 27 46 45 50 66 15 100 -24 25
-45 31 -58 18z"/>
<path d="M4365 995 c-14 -13 -25 -31 -25 -40 0 -23 9 -18 20 10 6 17 17 25 33
25 29 0 62 -34 53 -55 -8 -22 -51 -16 -50 8 2 21 -22 23 -30 2 -5 -15 25 -55
43 -55 20 0 61 43 61 65 0 24 -42 65 -67 65 -8 0 -25 -11 -38 -25z"/>
<path d="M4271 974 c-1 -27 -11 -36 -27 -23 -16 13 -31 -8 -15 -24 16 -16 55
24 48 49 -4 17 -5 17 -6 -2z"/>
<path d="M3920 947 c0 -19 -43 -57 -63 -57 -10 0 -17 -8 -17 -20 0 -11 7 -20
15 -20 8 0 15 -4 15 -10 0 -15 42 -50 59 -50 9 1 35 18 58 39 36 33 41 41 28
51 -11 9 -20 5 -46 -25 -21 -24 -39 -35 -53 -33 -33 5 -32 41 1 69 42 35 46
47 23 59 -15 8 -20 8 -20 -3z"/>
<path d="M4267 902 c-49 -51 -29 -80 32 -45 24 15 33 15 43 5 16 -16 -2 -48
-26 -44 -17 3 -22 -13 -7 -22 15 -10 61 34 61 59 0 38 -29 47 -68 23 -42 -26
-56 -14 -19 16 15 12 27 25 27 29 0 14 -17 6 -43 -21z"/>
</g>
</svg>
